<svg xmlns="http://www.w3.org/2000/svg" viewBox="0 0 174.5 142.13"><g id="Layer_2" data-name="Layer 2"><g id="Layer_1-2" data-name="Layer 1"><path d="M122.16,37.35c0,1.31,0,2.62,0,3.92a6,6,0,0,1-.08.84c-.14.83-.27,1.65-.42,2.48a4.2,4.2,0,0,1-.21.66c0,.12-.14.23-.17.35-.21.83-.37,1.66-.61,2.48s-.5,1.41-.77,2.11c0,.13-.14.23-.17.36a13.8,13.8,0,0,1-1.38,3.12c-.39.79-.78,1.59-1.24,2.34s-1,1.54-1.54,2.28c-.79,1.06-1.6,2.12-2.45,3.14A25.32,25.32,0,0,1,109,65.38c-1,.75-1.92,1.54-2.91,2.26-.58.42-1.22.75-1.84,1.12s-1,.57-1.48.84-.9.45-1.36.66l-2.11.91c-.42.17-.84.34-1.28.47-.76.24-1.53.45-2.3.67l-.9.26c-.09,0-.18.1-.27.12-1.13.2-2.27.43-3.41.59s-2,.16-3.06.31a15.41,15.41,0,0,1-4.84,0,7.66,7.66,0,0,0-1.43-.18,23.31,23.31,0,0,1-4.55-.64,20.27,20.27,0,0,1-2.66-.81c-.67-.2-1.35-.39-2-.64s-1.23-.54-1.83-.82c-.43-.19-.85-.41-1.28-.61s-1-.38-1.42-.63a18.25,18.25,0,0,1-1.63-1c-.85-.58-1.7-1.16-2.51-1.79a29.5,29.5,0,0,1-2.85-2.36A56.93,56.93,0,0,1,57,59.64a45.12,45.12,0,0,1-2.68-4.1A21.51,21.51,0,0,1,53,53.21c-.45-.93-.78-1.92-1.17-2.88-.26-.64-.53-1.26-.8-1.89,0,0,0-.09-.06-.14-.2-.83-.39-1.65-.59-2.48a1.5,1.5,0,0,0-.07-.44,8.27,8.27,0,0,1-.48-2.5c-.82-3.2-.25-6.45-.42-9.68a4.68,4.68,0,0,1,.09-.83c.14-.86.27-1.72.42-2.58a4.31,4.31,0,0,1,.19-.61c.05-.14.15-.27.19-.41.2-.86.37-1.73.61-2.58s.56-1.82.85-2.73a.92.92,0,0,1,.09-.23c.29-.71.57-1.42.9-2.11s.68-1.41,1.05-2.1.76-1.37,1.19-2c.59-.88,1.18-1.77,1.84-2.6a29.42,29.42,0,0,1,4.42-4.84c1.1-.91,2.21-1.81,3.37-2.65,1-.72,2-1.37,3.07-2a21.09,21.09,0,0,1,1.89-1c.89-.44,1.78-.88,2.69-1.29a12.45,12.45,0,0,1,1.33-.49l2.3-.67.94-.28c.11,0,.21-.1.32-.12C78.07.87,79,.64,80,.52c1.49-.18,3-.28,4.49-.45a14.93,14.93,0,0,1,4,.16,6.71,6.71,0,0,0,1.33.16,24.51,24.51,0,0,1,4.6.65,21.48,21.48,0,0,1,2.67.8c.67.21,1.35.4,2,.65s1.22.55,1.83.82l1.27.61c.82.4,1.66.78,2.43,1.25s1.65,1.11,2.45,1.7,1.83,1.34,2.7,2.06a26.87,26.87,0,0,1,4.6,4.87c.85,1.15,1.66,2.32,2.46,3.49.45.68.89,1.37,1.29,2.08.28.5.46,1.05.7,1.56s.52,1,.76,1.53a3,3,0,0,1,.18.5c.25.76.42,1.54.64,2.3.31,1.11.57,2.26,1,3.33.47,1.25.24,2.6.77,3.81a2.73,2.73,0,0,1,.12,1C122.17,34.74,122.16,36,122.16,37.35ZM85.74,69.28v0c1.11,0,2.22.07,3.32,0,1.41-.12,2.8-.38,4.2-.59a2.29,2.29,0,0,0,.28-.09l1.09-.31c.73-.23,1.46-.44,2.18-.7s1.27-.51,1.9-.78,1-.43,1.46-.67,1-.53,1.45-.81c.68-.39,1.38-.75,2-1.2A26.82,26.82,0,0,0,106,62.34a32,32,0,0,0,3.12-2.81,48.45,48.45,0,0,0,3.27-4c.69-.93,1.25-2,1.85-2.94.25-.41.44-.84.65-1.26s.54-1,.75-1.58.39-1.25.65-1.85a11.18,11.18,0,0,0,.92-3.15.69.69,0,0,1,.07-.29,4,4,0,0,0,.41-2.06,7.31,7.31,0,0,1,.19-1,8.38,8.38,0,0,0,.24-1.31c0-1.88,0-3.77,0-5.65a5.56,5.56,0,0,0-.16-1c-.09-.53-.17-1.07-.27-1.6-.2-1.1-.42-2.19-.64-3.28a.18.18,0,0,0,0-.09c-.26-.74-.58-1.46-.78-2.22s-.7-1.35-.59-2.15c0-.06,0-.13-.08-.19-.46-.94-.91-1.88-1.4-2.81a18.76,18.76,0,0,0-1.14-2,27.58,27.58,0,0,0-1.86-2.54c-.88-1.06-1.8-2.1-2.78-3.08a33,33,0,0,0-2.68-2.34c-.8-.63-1.65-1.19-2.49-1.76-.6-.4-1.23-.75-1.86-1.11-.46-.27-.93-.54-1.41-.77s-1-.44-1.53-.64C97.69,6.57,97,6.26,96.29,6s-1.61-.42-2.42-.63l-.23-.08c-.44-.12-.88-.25-1.32-.36s-.62-.12-.93-.17a9.91,9.91,0,0,0-1.7-.29c-2.58,0-5.16,0-7.74,0a6.31,6.31,0,0,0-1.42.2c-1,.23-2,.5-3,.76l-2.42.61L75,6.11c-.69.28-1.39.55-2.08.84-.51.21-1,.41-1.52.66s-1,.54-1.43.82c-.68.39-1.41.72-2,1.17-1,.72-2,1.49-3,2.3a27.83,27.83,0,0,0-2.63,2.46c-1.13,1.26-2.17,2.61-3.21,3.95a16.16,16.16,0,0,0-1.26,1.91c-.43.76-.71,1.6-1.19,2.31-.71,1-.75,2.28-1.27,3.37a15.37,15.37,0,0,0-.68,2.15c-.27.89-.59,1.77-.79,2.68a17.33,17.33,0,0,0-.48,3.11c-.08,2.49-.36,5,.32,7.45a2,2,0,0,1,.06.54,4.64,4.64,0,0,0,.4,2.32,2.59,2.59,0,0,1,.11.58c.2.83.38,1.66.61,2.48a10.79,10.79,0,0,0,.45,1.24c.19.5.37,1,.59,1.5s.52,1,.79,1.53c.56,1.05,1,2.15,1.71,3.14.86,1.27,1.84,2.47,2.81,3.67a30.28,30.28,0,0,0,5.23,4.89c1.09.83,2.32,1.48,3.49,2.2.39.24.79.44,1.2.66s.93.52,1.42.73,1.17.43,1.75.64.94.38,1.41.55.67.23,1,.32.52.08.78.14l1.76.4.83.18a8.44,8.44,0,0,0,1.4.27C83,69.3,84.37,69.28,85.74,69.28Z"/><path d="M87.23,130.64H.74c-.69,0-.74,0-.74-.73V83c0-.67.05-.72.74-.72H173.42c1.08,0,1.08,0,1.08,1.08v46.26c0,1,0,1-1,1Zm-.17-1.5H172.2c1,0,1,0,1-1q0-21.6,0-43.19c0-1.19,0-1.19-1.21-1.19H2c-.9,0-.91,0-.91.92q0,21.54,0,43.08c0,1.43-.23,1.37,1.35,1.37Z"/><path d="M148.79,140.36c.27-.53.5-.93.68-1.34a13.59,13.59,0,0,0,.57-1.5c.13-.46.46-.42.79-.39s.61.1.61.54c0,1.29,0,2.58,0,3.87a.47.47,0,0,1-.52.53c-.35,0-.38-.25-.38-.51,0-.52,0-1,0-1.54a1.61,1.61,0,0,0-.22-.76,10.33,10.33,0,0,0-.66,1.1c-.22.46-.38.94-.56,1.41-.12.31-.32.38-.56.15a1.42,1.42,0,0,1-.39-.5c-.24-.63-.44-1.27-.65-1.9a.47.47,0,0,0-.24-.23,4.2,4.2,0,0,0-.17.7c0,.53,0,1.06,0,1.59,0,.35-.15.51-.5.51s-.48-.2-.48-.53v-3.77c0-.28-.05-.61.34-.66s.84,0,1,.4.4,1.17.65,1.73A10.39,10.39,0,0,0,148.79,140.36Z"/><path d="M120.11,139.54c0-.62,0-1.25,0-1.88,0-.37.17-.55.54-.55s.86,0,1.28,0a1.68,1.68,0,0,1,1.71,2,.84.84,0,0,1-.19.43,1.06,1.06,0,0,0-.12,1.63,1.37,1.37,0,0,1,.18.24c.11.22.28.49-.06.63a.55.55,0,0,1-.77-.21,8.68,8.68,0,0,0-.6-1.13,2.92,2.92,0,0,0-.69-.48,3.56,3.56,0,0,0-.33.68,1.39,1.39,0,0,0,0,.54c0,.38-.14.61-.53.62s-.4-.3-.4-.59Zm.92-.81c0,.69.15.86.67.85a.87.87,0,0,0,.94-.91c0-.47-.34-.72-1-.72C121.22,137.94,121,138.2,121,138.73Z"/><path d="M111.14,139.6c0-.63,0-1.25,0-1.88,0-.42.15-.62.58-.61s.83,0,1.24,0a2.49,2.49,0,0,1-.41,5c-1.6,0-1.4.11-1.41-1.36Zm.91,0a7.07,7.07,0,0,0,0,1c0,.19.22.49.36.51a1.51,1.51,0,0,0,1.41-.35c.45-.46.33-1,.34-1.48,0-1.05-.94-1.37-1.72-1.24-.16,0-.34.33-.38.54A4.67,4.67,0,0,0,112.05,139.59Z"/><path d="M97.23,139.58c0-.65,0-1.29,0-1.93,0-.38.17-.55.54-.54h1.39a1.57,1.57,0,0,1,1.46.78,1.62,1.62,0,0,1-.21,1.89,1,1,0,0,0,0,1.24,1.66,1.66,0,0,1,.27.4c.09.23.21.52-.14.62a.58.58,0,0,1-.76-.29,10,10,0,0,0-.68-1.24.77.77,0,0,0-.57-.28c-.1,0-.25.3-.28.48a5.91,5.91,0,0,0,0,.94c0,.31-.18.44-.48.44s-.52-.09-.52-.44v-2.08Zm1-.78c0,.7.07.78.58.79.7,0,1-.27,1-.88s-.36-.78-1-.78C98.34,137.93,98.22,138.12,98.23,138.8Z"/><path d="M128.42,139.64c0-.63,0-1.26,0-1.89a.53.53,0,0,1,.58-.63c.9,0,1.79,0,2.68,0,.14,0,.28.2.42.3-.14.17-.28.45-.45.47-.45.07-.92,0-1.38,0a1.55,1.55,0,0,0-.75.2.75.75,0,0,0-.25.56c0,.14.21.33.36.37a3.93,3.93,0,0,0,.84.09c.26,0,.53,0,.79,0s.65,0,.64.43-.37.42-.65.44-.73,0-1.09,0a1.39,1.39,0,0,0-.54.08c-.15.08-.35.25-.35.38a.75.75,0,0,0,.27.56,1.4,1.4,0,0,0,.71.16c.48,0,1,0,1.43,0,.16,0,.29.32.42.49-.13.11-.27.31-.41.31-.91,0-1.82,0-2.72,0a.49.49,0,0,1-.54-.57c0-.63,0-1.25,0-1.88Z"/><path d="M81.21,137.11A2.07,2.07,0,0,1,83.33,139a5.82,5.82,0,0,1-.08,1.77A1.94,1.94,0,0,1,81.93,142a2.22,2.22,0,0,1-2.75-1.36,2.8,2.8,0,0,1,.17-2.47A1.89,1.89,0,0,1,81.21,137.11Zm-1.38,2.75a7.08,7.08,0,0,0,.54,1.07c.25.38,1.52.32,1.79,0a2.76,2.76,0,0,0,0-2.59.66.66,0,0,0-.29-.17C80.67,137.74,79.93,138.33,79.83,139.86Z"/><path d="M141.45,141.86c-.48.34-.69.31-1-.13a1.47,1.47,0,0,0-1.95-.71.79.79,0,0,0-.43.51c-.11.33-.27.52-.62.54s-.44-.1-.41-.41a.59.59,0,0,1,0-.14c.28-.82.57-1.63.84-2.45.07-.2.1-.41.18-.61a5.73,5.73,0,0,1,.53-1.15c.29-.43,1.23-.21,1.39.31.23.72.41,1.45.64,2.16S141.18,141.15,141.45,141.86Zm-2-3.3a1.25,1.25,0,0,0-.83,1.15.37.37,0,0,0,.48.4c.21,0,.56-.2.56-.3A6.8,6.8,0,0,0,139.45,138.56Z"/><path d="M48.68,137a.76.76,0,0,1,.78.62c.22.7.54,1.36.8,2s.41,1.11.57,1.67c.08.27.18.61-.25.73s-.65-.07-.7-.52-.2-.53-.52-.55a4.68,4.68,0,0,0-1.18,0,.85.85,0,0,0-.74.71c-.07.34-.3.43-.62.4s-.44-.19-.32-.53c.33-.89.62-1.79.92-2.68a9.14,9.14,0,0,1,.55-1.46C48.08,137.22,48.43,137.15,48.68,137Zm-.62,3a7.94,7.94,0,0,0,.83.13c.4,0,.56-.21.41-.56a11.4,11.4,0,0,0-.6-1.08l-.16,0Z"/><path d="M92.26,139.17c0,.41,0,.82,0,1.23a1.75,1.75,0,0,1-1.65,1.69,2.07,2.07,0,0,1-1.55-.32,1.86,1.86,0,0,1-.81-1.64c.06-.82,0-1.65,0-2.47,0-.37.14-.55.53-.55s.48.2.47.54c0,.89,0,1.78,0,2.67,0,.31,0,.66.39.77a1.65,1.65,0,0,0,1.47-.14c.11-.08.13-.33.13-.5,0-.9,0-1.79,0-2.68,0-.38.07-.65.53-.65s.46.33.46.66v1.39Z"/><path d="M30,139.63c0-.65,0-1.29,0-1.94,0-.38.15-.56.52-.56a10,10,0,0,1,1.73,0,1.51,1.51,0,0,1,1.33,1.9c-.14,1-.5,1.22-1.61,1.39l-.54.07A.48.48,0,0,0,31,141v.59c0,.3-.14.47-.46.45s-.5-.12-.5-.47C30,141,30,140.29,30,139.63Zm1-.8c0,.72.06.78.73.79a1,1,0,0,0,1.06-.79c0-.43-.54-.86-1.1-.87S31,138.14,31,138.83Z"/><path d="M55.64,137.38c.5-.35.9-.26,1.13.21s.4.86.63,1.27a.45.45,0,0,0,.41.09,4,4,0,0,0,.54-.69,4.8,4.8,0,0,1,.58-1c.15-.15.5-.07.76-.1a1.67,1.67,0,0,1-.08.55,7.47,7.47,0,0,1-.81,1.5,3.56,3.56,0,0,0-.56,2.39c0,.36-.27.46-.54.42s-.28-.25-.36-.41a.85.85,0,0,1,0-.45,3.39,3.39,0,0,0-.76-2.11C56.25,138.52,55.94,138,55.64,137.38Z"/><path d="M69.93,137.34c.5-.43,1.07-.16,1.38.63a4.52,4.52,0,0,0,.56,1,.42.42,0,0,0,.38,0,4.42,4.42,0,0,0,.55-1c.26-.64.71-1,1.23-.78.06,0,.1.08.17.13-.36.65-.69,1.29-1.07,1.91a3.66,3.66,0,0,0-.71,2.26.66.66,0,0,1-.12.45.38.38,0,0,1-.34.1c-.12-.08-.27-.25-.26-.37a5.47,5.47,0,0,0-1.26-3.33A10.42,10.42,0,0,1,69.93,137.34Z"/><path d="M38.91,139.56c0-.64,0-1.28,0-1.93,0-.35.14-.52.5-.52s.5.17.5.52c0,1,0,2,0,3,0,.47.19.68.65.65h.84a.43.43,0,0,1,.48.5c0,.13-.3.32-.47.34-.64,0-1.28,0-1.93,0-.4,0-.57-.16-.56-.56C38.92,140.89,38.91,140.22,38.91,139.56Z"/><path d="M113.69,37c0,1.09,0,1.87,0,2.65a13,13,0,0,1-.27,1.6c0,.11-.07.22-.09.33-.22,1.16-.38,2.33-.66,3.48A14.49,14.49,0,0,1,111.9,47l-.13.27c-.33.74-.64,1.5-1,2.23a22.66,22.66,0,0,1-1.07,2.08,20.17,20.17,0,0,1-3.32,4.37c-.93.9-1.83,1.84-2.79,2.71A14,14,0,0,1,102,59.8c-.94.65-1.88,1.31-2.86,1.91a10.75,10.75,0,0,1-1.47.65l-1.16.51-1.84.8a1,1,0,0,1-.18.09,11.68,11.68,0,0,1-1.8.48c-1.51.18-3,.56-4.48.74a42.55,42.55,0,0,1-6.78-.18,4.35,4.35,0,0,1-.86-.22,5.44,5.44,0,0,0-.57-.19c-1-.2-1.93-.36-2.88-.62A14.76,14.76,0,0,1,75.29,63c-.5-.21-1-.42-1.52-.66s-1.08-.51-1.6-.81c-.67-.39-1.32-.79-2-1.23s-1.08-.8-1.62-1.2A28.43,28.43,0,0,1,64,54.66a24.82,24.82,0,0,1-1.73-2.55c-.42-.65-.82-1.31-1.19-2-.28-.49-.5-1-.73-1.51-.3-.67-.61-1.33-.85-2s-.45-1.57-.67-2.36c-.09-.3-.18-.59-.26-.89a9.28,9.28,0,0,1-.22-.91c-.13-.74-.26-1.49-.35-2.24s-.13-1.38-.15-2.07c0-1,0-2,0-3a18.77,18.77,0,0,1,.3-1.95,7.56,7.56,0,0,0,.14-.83,3.94,3.94,0,0,1,.41-2c.1-.15.07-.39.12-.58.11-.4.23-.81.35-1.21l.09-.23c.39-1.05.71-2.13,1.19-3.15A7.1,7.1,0,0,0,60.88,24a4,4,0,0,1,.56-1.08c.58-.89,1.22-1.74,1.76-2.64a19.92,19.92,0,0,1,3.09-3.57,16.7,16.7,0,0,1,3.25-2.79c1-.57,1.87-1.25,2.84-1.83a13.19,13.19,0,0,1,1.48-.64l1.16-.5,1.83-.8c.05,0,.09-.06.13-.07l2.59-.6c.35-.08.7-.19,1.06-.24.86-.13,1.73-.21,2.59-.36,2.3-.41,4.59,0,6.87.14a4.65,4.65,0,0,1,1,.24c.16,0,.31.12.47.15,1,.21,1.94.36,2.89.62a17.24,17.24,0,0,1,1.85.77l1.24.57c.81.38,1.66.7,2.43,1.16a20.22,20.22,0,0,1,4.33,3.2c.89.91,1.79,1.79,2.65,2.72.49.53.9,1.12,1.35,1.69.16.21.34.4.48.62.62,1,1.23,2,1.84,2.94a.49.49,0,0,1,.07.19,6.19,6.19,0,0,0,.9,2.34,14.38,14.38,0,0,1,.65,1.95c.29.93.58,1.87.86,2.8a.73.73,0,0,1,.07.24C113.22,33.22,114,35.19,113.69,37ZM85.52,13c-1.58-.29-3.35.29-5.16.54a2.07,2.07,0,0,0-.42.14l-2.42.8a13.68,13.68,0,0,0-1.69.64c-.79.39-1.54.86-2.29,1.31s-1.44.86-2.11,1.36a18,18,0,0,0-1.92,1.68,20.43,20.43,0,0,0-3.24,3.7,2.94,2.94,0,0,0-.65,1.45.48.48,0,0,1-.08.18l-.79,1.46c-.18.35-.35.7-.52,1.05A16.52,16.52,0,0,0,63.41,29c-.26.79-.42,1.61-.63,2.42a2,2,0,0,0-.07.23c-.12.54-.25,1.08-.36,1.62-.05.29,0,.6-.09.89a12,12,0,0,0-.14,4.43c.11.85.16,1.71.25,2.57a5.13,5.13,0,0,0,.16.87c.25.91.52,1.82.8,2.72A14.46,14.46,0,0,0,64,46.64a24.37,24.37,0,0,0,1.38,2.57,21.35,21.35,0,0,0,2.14,3,23.33,23.33,0,0,0,4.69,4.35c1,.63,2.06,1.2,3.1,1.77a13.38,13.38,0,0,0,1.38.65,11.56,11.56,0,0,0,1.74.75c1,.25,2,.4,3,.6l.53.14a6.41,6.41,0,0,0,1.35.25c2.29,0,4.57.25,6.86-.35a19.81,19.81,0,0,0,3.82-1c1.06-.52,2.14-1,3.21-1.46a7.08,7.08,0,0,0,.88-.53c.92-.62,1.88-1.19,2.74-1.89A30.42,30.42,0,0,0,103,53.36a18.24,18.24,0,0,0,2.7-3.37c.39-.63.74-1.27,1.1-1.91.19-.35.35-.73.52-1.1a10.46,10.46,0,0,0,.76-1.63,6.89,6.89,0,0,0,.63-2.36c0-.07.06-.15.08-.23.12-.52.25-1,.35-1.57a8,8,0,0,1,.12-1,10.78,10.78,0,0,0,.27-4.23c-.11-1.17-.26-2.33-.45-3.49-.12-.72-.35-1.43-.54-2.14a2.29,2.29,0,0,0-.1-.23c-.26-.7-.51-1.4-.8-2.1-.21-.52-.44-1-.7-1.54a8,8,0,0,1-.94-1.81,6.45,6.45,0,0,0-1.53-2.61,21.83,21.83,0,0,0-2.85-3,31.85,31.85,0,0,0-3.27-2.51,15.37,15.37,0,0,0-2.33-1.26A28.33,28.33,0,0,0,93,14c-.93-.3-1.91-.43-2.87-.64l-.43-.11c-.59-.1-1.17-.25-1.75-.29S86.52,13,85.52,13Z"/><path d="M45.75,86.75H85.92c1.21,0,1.21,0,1.21,1.19q0,18.69,0,37.38c0,.72-.1.81-.84.83H5.38c-.87,0-.87,0-.87-.89V87.64c0-.89,0-.89.88-.89ZM32.41,103.93a5.08,5.08,0,0,0-1.45-4A5.28,5.28,0,0,0,28,98.3a5.37,5.37,0,0,0-4.4.94A8.77,8.77,0,0,0,22,101a4.9,4.9,0,0,0-.63,2.94,5.18,5.18,0,0,0,.76,3.11,4.86,4.86,0,0,0,3.56,2.26,5.31,5.31,0,0,0,1.51.15,5.16,5.16,0,0,0,2.53-.71,8.36,8.36,0,0,0,1.57-1.3A4.57,4.57,0,0,0,32.41,103.93Zm28-.16a4.87,4.87,0,0,0,.89,3.32,4.58,4.58,0,0,0,3.2,2.14,7.09,7.09,0,0,0,.78.14,9.69,9.69,0,0,0,1.32,0,3.64,3.64,0,0,0,.92-.17,6.08,6.08,0,0,0,1.66-.67,5,5,0,0,0,2.23-3.9,5.92,5.92,0,0,0-1.08-4.37,5.41,5.41,0,0,0-3.52-2,6,6,0,0,0-3,.36A5.29,5.29,0,0,0,61,101,3.79,3.79,0,0,0,60.37,103.77Zm-51.14.12h0c0,1.48,0,3,0,4.42,0,.74.09.87.83.88,1,0,2,0,3,0a5.46,5.46,0,0,0,3.3-.92,4.32,4.32,0,0,0,2.05-2.9,5.72,5.72,0,0,0-.89-4.93,4.79,4.79,0,0,0-2.28-1.64,14.58,14.58,0,0,0-3-.44c-.66-.06-1.32,0-2,0s-1,.27-1,1C9.22,100.89,9.23,102.39,9.23,103.89Zm71.2,1.51c.35-.24.67-.47,1-.68a2.85,2.85,0,0,0,1.28-1.91,3.43,3.43,0,0,0-.42-2.76,2.92,2.92,0,0,0-1.58-1.27,9,9,0,0,0-3-.43,17.8,17.8,0,0,1-1.79,0c-.84,0-1.05.22-1.05,1.07v8.88c0,.85.07.91.94.89.37,0,.55-.16.54-.55,0-.54,0-1.09,0-1.63,0-1.63,0-1.62,1.64-1.61a1,1,0,0,1,1,.48c.6.86,1.28,1.67,1.8,2.58s1,.75,1.72.7c.31,0,.38-.23.2-.49Zm-45.06-1.59a7.92,7.92,0,0,0,.21,1.71,6.23,6.23,0,0,0,.92,1.84c.5.68,1,1.4,2,1.38a.49.49,0,0,1,.28.09,4.54,4.54,0,0,0,2.7.61A5.28,5.28,0,0,0,45,108.08a4,4,0,0,0,1.42-2c0-.2,0-.56-.1-.62a1,1,0,0,0-.79-.08,1.4,1.4,0,0,0-.64.57,3.36,3.36,0,0,1-2.58,1.85c-.2,0-.39.08-.58.11a4.66,4.66,0,0,1-2.36-.38c-.37-.15-.73-.34-1.09-.52a.92.92,0,0,1-.32-.2A4,4,0,0,1,36.89,104a4.14,4.14,0,0,1,.45-2.14c.33-.53.51-1.14,1.28-1.17.08,0,.17-.08.25-.13a3.94,3.94,0,0,1,2.3-.85,4.89,4.89,0,0,1,2,.42,3.54,3.54,0,0,1,1.72,1.65,1.18,1.18,0,0,0,1.42.31.49.49,0,0,0,.09-.4,5.35,5.35,0,0,0-.75-1.42A7.21,7.21,0,0,0,44.1,99a4.6,4.6,0,0,0-2.4-.81,6.35,6.35,0,0,0-2.69.51c-.26.12-.63,0-.86.17A5.25,5.25,0,0,0,36,101.05,4.63,4.63,0,0,0,35.37,103.81Zm17.4.73c0,1.34,0,2.68,0,4,0,.18.09.5.18.51a2.48,2.48,0,0,0,1,0c.13,0,.24-.39.24-.61,0-2.5,0-5,0-7.49,0-.2,0-.4,0-.6,0-.42.21-.62.66-.61.74,0,1.49,0,2.23,0s.76-.23.65-.81-.41-.57-.81-.57q-3.57,0-7.14,0a.84.84,0,0,0-.85.85c0,.53.44.51.79.53.58,0,1.16,0,1.74,0,1.22,0,1.23,0,1.23,1.26Z"/><path d="M99.48,103.61c.46-.61.86-1.11,1.22-1.63.71-1,1.4-2,2.12-3a.82.82,0,0,1,.55-.26,14.93,14.93,0,0,1,1.64,0c.4,0,.6.23.59.68q0,4.59,0,9.17c0,.46-.19.65-.6.66-.63,0-1.26,0-1.89,0-.38,0-.44-.26-.44-.58,0-1.25,0-2.51,0-3.77a5.9,5.9,0,0,0-.1-.7l-.18-.06c-.37.44-.75.87-1.11,1.32-.23.3-.42.64-.65.93a.66.66,0,0,1-.38.27,8.54,8.54,0,0,1-1.43,0,.93.93,0,0,1-.53-.38c-.43-.56-.81-1.15-1.24-1.71a2.87,2.87,0,0,0-.64-.46,5.88,5.88,0,0,0-.12.79c0,1.24,0,2.48,0,3.72,0,.47-.19.66-.65.64s-1.06,0-1.59,0-.67-.21-.67-.71c0-3,0-6,0-9.08,0-.53.17-.7.71-.74a4,4,0,0,0,.49,0,2,2,0,0,1,2.22,1.26,21.62,21.62,0,0,0,1.76,2.42C98.85,102.71,99.12,103.1,99.48,103.61Z"/><path d="M140,109.21c-.36,0-.73,0-1.09,0a4.74,4.74,0,0,1-2.74-1.22,6.09,6.09,0,0,1-1.44-2.2,1.68,1.68,0,0,1-.12-.63c0-.71,0-1.42,0-2.13a4.55,4.55,0,0,1,1.47-3.17,5.67,5.67,0,0,1,3.55-1.55,4.93,4.93,0,0,1,1.73.24c.53.14,1,.4,1.55.57a3.29,3.29,0,0,1,1.6,1.41,10,10,0,0,1,.93,1.78c0,.07-.13.32-.21.33a23.42,23.42,0,0,1-2.37,0c-.2,0-.42-.26-.57-.44a2.78,2.78,0,0,0-3.25-.93,2,2,0,0,0-1.36,1.57,6.5,6.5,0,0,0,0,2,2,2,0,0,0,.69,1.11,2.41,2.41,0,0,0,3.7-.28,1.63,1.63,0,0,1,1.27-.63c.55,0,1.09,0,1.64,0s.6.25.37.68-.47.93-.72,1.39a4.84,4.84,0,0,1-1.94,1.61A4.75,4.75,0,0,1,140,109.21Z"/><path d="M117.18,102.35c0,.76,0,1.53,0,2.28a4.76,4.76,0,0,1-1,3.22,4.66,4.66,0,0,1-1.1.86c-1.24.86-2.66.57-4,.44a3.63,3.63,0,0,1-2.4-1.67,5,5,0,0,1-.71-3c-.09-1.7,0-3.41,0-5.11,0-.54.17-.71.71-.73s1,0,1.49,0,.67.14.67.69c0,1.64,0,3.28,0,4.91a3.09,3.09,0,0,0,.53,1.81c.75.8,1.41.85,2.35,0a1.43,1.43,0,0,0,.46-1.11c0-1.83,0-3.67,0-5.5,0-.73.06-.78.8-.79.53,0,1.06,0,1.59,0s.62.19.61.63C117.17,100.3,117.18,101.33,117.18,102.35Z"/><path d="M123.22,109.21c-.4,0-.8,0-1.19,0a3.56,3.56,0,0,1-2.75-1.77,2.92,2.92,0,0,1-.24-1.34c0-.12.28-.35.43-.36a11.88,11.88,0,0,1,1.79,0c.18,0,.37.23.5.4a1.88,1.88,0,0,0,1.6,1,1.28,1.28,0,0,0,1-.68c.23-.36-.18-1.08-.65-1.21-.71-.2-1.44-.34-2.13-.61a3.86,3.86,0,0,1-2.26-1.63,3.23,3.23,0,0,1-.25-1.29,2.34,2.34,0,0,1,.54-2.08,5.78,5.78,0,0,1,1.32-.89,8.74,8.74,0,0,1,1.44-.39,4.56,4.56,0,0,1,3,.6,2.9,2.9,0,0,1,1.44,1.43,2.87,2.87,0,0,1,.26.83c0,.36-.15.55-.53.54h-1.44a1.11,1.11,0,0,1-1-.6,1.16,1.16,0,0,0-.63-.43,3.34,3.34,0,0,0-.84,0,.81.81,0,0,0-.85.68c0,.23.24.6.47.78a3.35,3.35,0,0,0,1.49.58,11.07,11.07,0,0,1,2,.8c1.59.68,1.68,2.59,1.27,3.88a1.87,1.87,0,0,1-.58.79,3.32,3.32,0,0,1-2.23,1Z"/><path d="M164.69,106.55c.31,0,.57.07.82.07h2.83c.58,0,.67.09.68.65s0,.93,0,1.39-.13.53-.5.53h-7.29c-.49,0-.7-.2-.65-.69a2.41,2.41,0,0,0,0-.6,2.06,2.06,0,0,1,.6-1.61l2.89-3.75c.28-.36.57-.71,1-1.17a5,5,0,0,0-.69-.14H161.6c-.59,0-.7-.13-.71-.71v-.94c0-.84.08-.92.9-.92h6.55c.45,0,.59.19.66.65a3.66,3.66,0,0,1-1.11,2.75c-.62.83-1.26,1.65-1.92,2.44A5.64,5.64,0,0,0,164.69,106.55Z"/><path d="M153.52,105.3c0-1,0-2.09,0-3.13,0-.81-.12-.92-.92-.93l-1.93,0c-.4,0-.57-.2-.55-.59s0-1,0-1.44a.44.44,0,0,1,.48-.51l.34,0h8c.47,0,.66.2.64.65s0,.93,0,1.39-.17.55-.54.55H157.2c-.61,0-.73.1-.74.72,0,1,0,2,0,2.93,0,1.2,0,2.41,0,3.62,0,.48-.2.67-.63.68h-1.74c-.4,0-.57-.18-.56-.57,0-1.11,0-2.22,0-3.33Z"/><path d="M132.64,104c0,1.53,0,3.07,0,4.61,0,.47-.18.66-.65.64-.77,0-1.55,0-2.33,0-.37,0-.54-.16-.54-.54,0-3.14,0-6.29,0-9.43,0-.43.2-.59.61-.58.77,0,1.53,0,2.29,0,.45,0,.62.2.61.63Z"/><path d="M83.75,36.91c0-4.33,0-8.67,0-13a2.42,2.42,0,0,1,.7-1.73,1.85,1.85,0,0,1,1.74-.48A2,2,0,0,1,87.83,24c0,5.76,0,11.52,0,17.28,0,2.86,0,5.72,0,8.59a2.05,2.05,0,0,1-.49,1.64A2.1,2.1,0,0,1,83.74,50C83.77,45.65,83.75,41.28,83.75,36.91Z"/><path d="M79.29,36.08c0,1.79,0,3.57,0,5.36A2.5,2.5,0,0,1,78,43.34a2.37,2.37,0,0,1-2.52-.7,1.44,1.44,0,0,1-.21-.6,11.17,11.17,0,0,1-.08-1.29c0-3.21,0-6.42,0-9.63,0-.29,0-.59.06-.89a1.74,1.74,0,0,1,1.17-1.42,1.88,1.88,0,0,1,1.95.2,1.75,1.75,0,0,1,.89,1.51c0,1.85,0,3.71,0,5.56Z"/><path d="M92.25,39.33c0-1.29-.07-2.59,0-3.87a4.53,4.53,0,0,1,.6-1.85,2,2,0,0,1,2.52-.43,2.45,2.45,0,0,1,1.18,2.43c.08,2.54,0,5.09,0,7.64a2.42,2.42,0,0,1-.87,2,2.08,2.08,0,0,1-3-.57,3.91,3.91,0,0,1-.44-2.13C92.24,41.45,92.25,40.39,92.25,39.33Z"/><path d="M105.2,37.15c0,.55,0,1.09,0,1.63a3,3,0,0,1-.56,1.86,2,2,0,0,1-2.57.46c-1-.64-1.1-1.67-1.21-2.67a13,13,0,0,1,0-2.57,5.31,5.31,0,0,1,.42-1.86,1.92,1.92,0,0,1,2.76-.82,2.44,2.44,0,0,1,1.15,2.24Z"/><path d="M70.66,37.16a13.19,13.19,0,0,1,0,1.54,8.63,8.63,0,0,1-.41,1.81c-.24.68-1.75,1.06-2.4.74a2.54,2.54,0,0,1-1.38-2.51c0-.94,0-1.88,0-2.82a4.44,4.44,0,0,1,.41-2.07,1.82,1.82,0,0,1,1.38-.92,2.11,2.11,0,0,1,2.41,2.2c0,.67,0,1.35,0,2Z"/><path d="M30.93,103.92a3.52,3.52,0,0,1-1.17,2.94,3.86,3.86,0,0,1-3.42,1,3,3,0,0,1-1.88-.64,10.54,10.54,0,0,1-1-1.1c-.84-1.09-.57-2.36-.47-3.57a3,3,0,0,1,1.16-1.84,3.89,3.89,0,0,1,3.62-1,3.67,3.67,0,0,1,2.78,2.17A4.33,4.33,0,0,1,30.93,103.92Z"/><path d="M69.88,103.94a7.35,7.35,0,0,1-.07,1.11,3.45,3.45,0,0,1-1.34,2.1,4.66,4.66,0,0,1-4.31.49,3.51,3.51,0,0,1-1.81-1.6,4.51,4.51,0,0,1-.49-3,3.58,3.58,0,0,1,1.22-2.28,4.12,4.12,0,0,1,3.62-1,4,4,0,0,1,2.7,1.87A4.25,4.25,0,0,1,69.88,103.94Z"/><path d="M10.73,103.82c0-1.06,0-2.12,0-3.18,0-.71.17-.84.88-.88a7.28,7.28,0,0,1,3.24.49,3.38,3.38,0,0,1,1.69,1.57,4.53,4.53,0,0,1,.45,2.33,3.59,3.59,0,0,1-1.87,3.14,2.78,2.78,0,0,1-1.64.44c-.69,0-1.39,0-2.08,0a.62.62,0,0,1-.69-.71c0-1.07,0-2.15,0-3.22Z"/><path d="M76.34,101.88c0-.52,0-1,0-1.58,0-.34.15-.52.5-.53a6.89,6.89,0,0,1,3.54.47,1.91,1.91,0,0,1,.72.77,2,2,0,0,1-1.17,2.78,12.89,12.89,0,0,1-2.9.26c-.55,0-.69-.17-.71-.73s0-1,0-1.44Z"/></g></g></svg>